<?xml version="1.0" encoding="UTF-8" standalone="no"?>
<!-- Created with Inkscape (http://www.inkscape.org/) -->

<svg
   xmlns:dc="http://purl.org/dc/elements/1.1/"
   xmlns:cc="http://creativecommons.org/ns#"
   xmlns:rdf="http://www.w3.org/1999/02/22-rdf-syntax-ns#"
   xmlns:svg="http://www.w3.org/2000/svg"
   xmlns="http://www.w3.org/2000/svg"
   xmlns:sodipodi="http://sodipodi.sourceforge.net/DTD/sodipodi-0.dtd"
   xmlns:inkscape="http://www.inkscape.org/namespaces/inkscape"
   width="744.09448819"
   height="1052.3622047"
   id="svg2"
   version="1.1"
   inkscape:version="0.48.4 r9939"
   sodipodi:docname="New document 1">
  <defs
     id="defs4">
    <clipPath
       id="clipPath3039"
       clipPathUnits="userSpaceOnUse">
      <path
         id="path3041"
         d="m 180,180 5580,0 0,7740 -5580,0 0,-7740 z" />
    </clipPath>
    <clipPath
       id="clipPath17755"
       clipPathUnits="userSpaceOnUse">
      <path
         id="path17757"
         d="m 180,180 5580,0 0,7740 -5580,0 0,-7740 z" />
    </clipPath>
  </defs>
  <sodipodi:namedview
     id="base"
     pagecolor="#ffffff"
     bordercolor="#666666"
     borderopacity="1.0"
     inkscape:pageopacity="0.0"
     inkscape:pageshadow="2"
     inkscape:zoom="15.839192"
     inkscape:cx="233.15069"
     inkscape:cy="124.52629"
     inkscape:document-units="px"
     inkscape:current-layer="layer1"
     showgrid="false"
     inkscape:snap-bbox="false"
     inkscape:bbox-nodes="false"
     inkscape:snap-bbox-midpoints="true"
     inkscape:snap-object-midpoints="true"
     showguides="true"
     inkscape:guide-bbox="true"
     inkscape:window-width="1916"
     inkscape:window-height="1041"
     inkscape:window-x="1680"
     inkscape:window-y="18"
     inkscape:window-maximized="0">
    <inkscape:grid
       type="xygrid"
       id="grid19648" />
  </sodipodi:namedview>
  <metadata
     id="metadata7">
    <rdf:RDF>
      <cc:Work
         rdf:about="">
        <dc:format>image/svg+xml</dc:format>
        <dc:type
           rdf:resource="http://purl.org/dc/dcmitype/StillImage" />
        <dc:title></dc:title>
      </cc:Work>
    </rdf:RDF>
  </metadata>
  <g
     inkscape:label="Layer 1"
     inkscape:groupmode="layer"
     id="layer1">
    <path
       style="fill:none;stroke:#000000;stroke-width:0.17928079;stroke-linecap:round;stroke-linejoin:round;stroke-miterlimit:4;stroke-opacity:1;stroke-dashoffset:0"
       d="m 10.629921,906.11322 496.328739,0 0,18.26825 10.62884,0 0,18.27284 -10.62884,0 0,18.26929 10.62884,0 0,18.26929 -10.62884,0 0,18.26929 10.62884,0 10e-4,18.26932 -10.62992,0 0,18.2728 10.62992,0 -10e-4,18.2682 -517.49785961,0 0,-18.2682 10.54028061,0 0,-18.2728 -10.54028061,0 0,-18.26932 10.54028061,0 0,-18.26929 -10.54028061,0 0,-18.26929 10.54028061,6.3e-4 0,-18.26992 -10.54028061,0 0,-18.27284 10.54028061,0 z"
       id="rect18833"
       inkscape:connector-curvature="0"
       sodipodi:nodetypes="ccccccccccccccccccccccccccccccccc" />
    <rect
       style="fill:none;stroke:#000000;stroke-width:0.17799315;stroke-linecap:round;stroke-linejoin:round;stroke-miterlimit:4;stroke-opacity:1;stroke-dasharray:none;stroke-dashoffset:0"
       id="rect19603"
       width="180.05447"
       height="51.199959"
       x="169.99603"
       y="958.75726" />
    <path
       sodipodi:type="arc"
       style="fill:none;stroke:#000000;stroke-width:0.17716534;stroke-linecap:round;stroke-linejoin:round;stroke-miterlimit:4;stroke-opacity:1;stroke-dasharray:none;stroke-dashoffset:0"
       id="path19607"
       sodipodi:cx="206.07112"
       sodipodi:cy="534.53271"
       sodipodi:rx="11.111678"
       sodipodi:ry="8.7125654"
       d="m 217.1828,534.53271 a 11.111678,8.7125654 0 1 1 -22.22336,0 11.111678,8.7125654 0 1 1 22.22336,0 z"
       transform="matrix(0.50565776,0,0,0.64489688,63.813138,570.9625)" />
    <path
       transform="matrix(0.50565776,0,0,0.64489688,248.31821,570.9625)"
       d="m 217.1828,534.53271 a 11.111678,8.7125654 0 1 1 -22.22336,0 11.111678,8.7125654 0 1 1 22.22336,0 z"
       sodipodi:ry="8.7125654"
       sodipodi:rx="11.111678"
       sodipodi:cy="534.53271"
       sodipodi:cx="206.07112"
       id="path19609"
       style="fill:none;stroke:#000000;stroke-width:0.17716534;stroke-linecap:round;stroke-linejoin:round;stroke-miterlimit:4;stroke-opacity:1;stroke-dasharray:none;stroke-dashoffset:0"
       sodipodi:type="arc" />
    <path
       sodipodi:type="arc"
       style="fill:none;stroke:#000000;stroke-width:0.17716534;stroke-linecap:round;stroke-linejoin:round;stroke-miterlimit:4;stroke-opacity:1;stroke-dasharray:none;stroke-dashoffset:0"
       id="path19611"
       sodipodi:cx="206.07112"
       sodipodi:cy="534.53271"
       sodipodi:rx="11.111678"
       sodipodi:ry="8.7125654"
       d="m 217.1828,534.53271 a 11.111678,8.7125654 0 1 1 -22.22336,0 11.111678,8.7125654 0 1 1 22.22336,0 z"
       transform="matrix(0.50565776,0,0,0.64489688,248.31821,696.9625)" />
    <path
       transform="matrix(0.50565776,0,0,0.64489688,63.813138,696.9625)"
       d="m 217.1828,534.53271 a 11.111678,8.7125654 0 1 1 -22.22336,0 11.111678,8.7125654 0 1 1 22.22336,0 z"
       sodipodi:ry="8.7125654"
       sodipodi:rx="11.111678"
       sodipodi:cy="534.53271"
       sodipodi:cx="206.07112"
       id="path19613"
       style="fill:none;stroke:#000000;stroke-width:0.17716534;stroke-linecap:round;stroke-linejoin:round;stroke-miterlimit:4;stroke-opacity:1;stroke-dasharray:none;stroke-dashoffset:0"
       sodipodi:type="arc" />
    <path
       sodipodi:type="arc"
       style="fill:none;stroke:#000000;stroke-width:0.17716534;stroke-linecap:round;stroke-linejoin:round;stroke-miterlimit:4;stroke-opacity:1;stroke-dasharray:none;stroke-dashoffset:0"
       id="path19622"
       sodipodi:cx="117.43024"
       sodipodi:cy="393.74274"
       sodipodi:rx="19.445436"
       sodipodi:ry="17.67767"
       d="m 136.87567,393.74274 a 19.445436,17.67767 0 1 1 -38.89087,0 19.445436,17.67767 0 1 1 38.89087,0 z"
       transform="matrix(0.5440544,0,0,0.59845983,-23.888437,706.72297)" />
    <path
       transform="matrix(0.82514915,0,0,0.90766408,-56.89746,629.97604)"
       d="m 136.87567,393.74274 a 19.445436,17.67767 0 1 1 -38.89087,0 19.445436,17.67767 0 1 1 38.89087,0 z"
       sodipodi:ry="17.67767"
       sodipodi:rx="19.445436"
       sodipodi:cy="393.74274"
       sodipodi:cx="117.43024"
       id="path19624"
       style="fill:none;stroke:#000000;stroke-width:0.17716534;stroke-linecap:round;stroke-linejoin:round;stroke-miterlimit:4;stroke-opacity:1;stroke-dasharray:none;stroke-dashoffset:0"
       sodipodi:type="arc" />
    <path
       transform="matrix(0.5440544,0,0,0.59845983,21.111563,706.72297)"
       d="m 136.87567,393.74274 a 19.445436,17.67767 0 1 1 -38.89087,0 19.445436,17.67767 0 1 1 38.89087,0 z"
       sodipodi:ry="17.67767"
       sodipodi:rx="19.445436"
       sodipodi:cy="393.74274"
       sodipodi:cx="117.43024"
       id="path19626"
       style="fill:none;stroke:#000000;stroke-width:0.17716534;stroke-linecap:round;stroke-linejoin:round;stroke-miterlimit:4;stroke-opacity:1;stroke-dasharray:none;stroke-dashoffset:0"
       sodipodi:type="arc" />
    <path
       sodipodi:type="arc"
       style="fill:none;stroke:#000000;stroke-width:0.17716534;stroke-linecap:round;stroke-linejoin:round;stroke-miterlimit:4;stroke-opacity:1;stroke-dasharray:none;stroke-dashoffset:0"
       id="path19628"
       sodipodi:cx="117.43024"
       sodipodi:cy="393.74274"
       sodipodi:rx="19.445436"
       sodipodi:ry="17.67767"
       d="m 136.87567,393.74274 a 19.445436,17.67767 0 1 1 -38.89087,0 19.445436,17.67767 0 1 1 38.89087,0 z"
       transform="matrix(0.5440544,0,0,0.59845983,66.111563,706.72297)" />
    <path
       sodipodi:type="arc"
       style="fill:none;stroke:#000000;stroke-width:0.17716534;stroke-linecap:round;stroke-linejoin:round;stroke-miterlimit:4;stroke-opacity:1;stroke-dasharray:none;stroke-dashoffset:0"
       id="path19630"
       sodipodi:cx="117.43024"
       sodipodi:cy="393.74274"
       sodipodi:rx="19.445436"
       sodipodi:ry="17.67767"
       d="m 136.87567,393.74274 a 19.445436,17.67767 0 1 1 -38.89087,0 19.445436,17.67767 0 1 1 38.89087,0 z"
       transform="matrix(0.82514917,0,0,0.90766408,-11.897462,629.97604)" />
    <path
       transform="matrix(0.82514917,0,0,0.90766408,33.102538,629.97604)"
       d="m 136.87567,393.74274 a 19.445436,17.67767 0 1 1 -38.89087,0 19.445436,17.67767 0 1 1 38.89087,0 z"
       sodipodi:ry="17.67767"
       sodipodi:rx="19.445436"
       sodipodi:cy="393.74274"
       sodipodi:cx="117.43024"
       id="path19632"
       style="fill:none;stroke:#000000;stroke-width:0.17716534;stroke-linecap:round;stroke-linejoin:round;stroke-miterlimit:4;stroke-opacity:1;stroke-dasharray:none;stroke-dashoffset:0"
       sodipodi:type="arc" />
    <path
       transform="matrix(0.5440544,0,0,0.59845983,326.11156,706.72297)"
       d="m 136.87567,393.74274 a 19.445436,17.67767 0 1 1 -38.89087,0 19.445436,17.67767 0 1 1 38.89087,0 z"
       sodipodi:ry="17.67767"
       sodipodi:rx="19.445436"
       sodipodi:cy="393.74274"
       sodipodi:cx="117.43024"
       id="path19636"
       style="fill:none;stroke:#000000;stroke-width:0.17716534;stroke-linecap:round;stroke-linejoin:round;stroke-miterlimit:4;stroke-opacity:1;stroke-dasharray:none;stroke-dashoffset:0"
       sodipodi:type="arc" />
    <path
       sodipodi:type="arc"
       style="fill:none;stroke:#000000;stroke-width:0.17716534;stroke-linecap:round;stroke-linejoin:round;stroke-miterlimit:4;stroke-opacity:1;stroke-dasharray:none;stroke-dashoffset:0"
       id="path19638"
       sodipodi:cx="117.43024"
       sodipodi:cy="393.74274"
       sodipodi:rx="19.445436"
       sodipodi:ry="17.67767"
       d="m 136.87567,393.74274 a 19.445436,17.67767 0 1 1 -38.89087,0 19.445436,17.67767 0 1 1 38.89087,0 z"
       transform="matrix(0.82514917,0,0,0.90766408,293.10254,629.97604)" />
    <path
       sodipodi:type="arc"
       style="fill:none;stroke:#000000;stroke-width:0.17716534;stroke-linecap:round;stroke-linejoin:round;stroke-miterlimit:4;stroke-opacity:1;stroke-dasharray:none;stroke-dashoffset:0"
       id="path19640"
       sodipodi:cx="117.43024"
       sodipodi:cy="393.74274"
       sodipodi:rx="19.445436"
       sodipodi:ry="17.67767"
       d="m 136.87567,393.74274 a 19.445436,17.67767 0 1 1 -38.89087,0 19.445436,17.67767 0 1 1 38.89087,0 z"
       transform="matrix(0.5440544,0,0,0.59845983,371.11156,706.72297)" />
    <path
       transform="matrix(0.5440544,0,0,0.59845983,416.11156,706.72297)"
       d="m 136.87567,393.74274 a 19.445436,17.67767 0 1 1 -38.89087,0 19.445436,17.67767 0 1 1 38.89087,0 z"
       sodipodi:ry="17.67767"
       sodipodi:rx="19.445436"
       sodipodi:cy="393.74274"
       sodipodi:cx="117.43024"
       id="path19642"
       style="fill:none;stroke:#000000;stroke-width:0.17716534;stroke-linecap:round;stroke-linejoin:round;stroke-miterlimit:4;stroke-opacity:1;stroke-dasharray:none;stroke-dashoffset:0"
       sodipodi:type="arc" />
    <path
       transform="matrix(0.82514917,0,0,0.90766408,338.10254,629.97604)"
       d="m 136.87567,393.74274 a 19.445436,17.67767 0 1 1 -38.89087,0 19.445436,17.67767 0 1 1 38.89087,0 z"
       sodipodi:ry="17.67767"
       sodipodi:rx="19.445436"
       sodipodi:cy="393.74274"
       sodipodi:cx="117.43024"
       id="path19644"
       style="fill:none;stroke:#000000;stroke-width:0.17716534;stroke-linecap:round;stroke-linejoin:round;stroke-miterlimit:4;stroke-opacity:1;stroke-dasharray:none;stroke-dashoffset:0"
       sodipodi:type="arc" />
    <path
       sodipodi:type="arc"
       style="fill:none;stroke:#000000;stroke-width:0.17716534;stroke-linecap:round;stroke-linejoin:round;stroke-miterlimit:4;stroke-opacity:1;stroke-dasharray:none;stroke-dashoffset:0"
       id="path19646"
       sodipodi:cx="117.43024"
       sodipodi:cy="393.74274"
       sodipodi:rx="19.445436"
       sodipodi:ry="17.67767"
       d="m 136.87567,393.74274 a 19.445436,17.67767 0 1 1 -38.89087,0 19.445436,17.67767 0 1 1 38.89087,0 z"
       transform="matrix(0.82514917,0,0,0.90766408,383.10254,629.97604)" />
    <path
       style="fill:none;stroke:#ff0000;stroke-width:1px;stroke-linecap:butt;stroke-linejoin:miter;stroke-opacity:1"
       d="m 185,1012.3622 0,10 -55,0 0,-15"
       id="path19660"
       inkscape:connector-curvature="0"
       sodipodi:nodetypes="cccc" />
    <path
       style="fill:none;stroke:#ff0000;stroke-width:1px;stroke-linecap:butt;stroke-linejoin:miter;stroke-opacity:1"
       d="m 215,1012.3622 0,15 -130,0 0,-20"
       id="path19662"
       inkscape:connector-curvature="0"
       sodipodi:nodetypes="cccc" />
    <path
       style="fill:none;stroke:#ff0000;stroke-width:1px;stroke-linecap:butt;stroke-linejoin:miter;stroke-opacity:1"
       d="m 245,1012.3622 0,20 c -71.66667,0 590.5299,0 -205,0 l 0,-25"
       id="path19664"
       inkscape:connector-curvature="0"
       sodipodi:nodetypes="cccc" />
    <path
       sodipodi:nodetypes="cccc"
       inkscape:connector-curvature="0"
       id="path19672"
       d="m 335,1012.3622 0,10 55,0 0,-15"
       style="fill:none;stroke:#ff0000;stroke-width:1px;stroke-linecap:butt;stroke-linejoin:miter;stroke-opacity:1" />
    <path
       sodipodi:nodetypes="cccc"
       inkscape:connector-curvature="0"
       id="path19674"
       d="m 305,1012.3622 0,15 130,0 0,-20"
       style="fill:none;stroke:#ff0000;stroke-width:1px;stroke-linecap:butt;stroke-linejoin:miter;stroke-opacity:1" />
    <path
       sodipodi:nodetypes="cccc"
       inkscape:connector-curvature="0"
       id="path19676"
       d="m 275,1012.3622 0,20 205,0 0,-25"
       style="fill:none;stroke:#ff0000;stroke-width:1px;stroke-linecap:butt;stroke-linejoin:miter;stroke-opacity:1" />
    <g
       style="font-size:9.60712719px;font-style:normal;font-variant:normal;font-weight:normal;font-stretch:normal;line-height:125%;letter-spacing:0px;word-spacing:0px;fill:#ff0000;fill-opacity:1;stroke:none;font-family:Ubuntu;-inkscape-font-specification:Ubuntu"
       id="text19678">
      <path
         d="m 208.93277,921.4399 c -0.0641,-0.15371 -0.15051,-0.34906 -0.25939,-0.58604 -0.10248,-0.23697 -0.21456,-0.49316 -0.33625,-0.76857 -0.12169,-0.2754 -0.25299,-0.55721 -0.39389,-0.84542 -0.1345,-0.29462 -0.2626,-0.57002 -0.38429,-0.82622 -0.12169,-0.26259 -0.23697,-0.49636 -0.34585,-0.70132 -0.10248,-0.20494 -0.18574,-0.36186 -0.24979,-0.47075 -0.0704,0.75577 -0.12809,1.57558 -0.17293,2.45943 -0.0448,0.87745 -0.0833,1.76451 -0.11528,2.66117 l -0.91268,0 c 0.0256,-0.57642 0.0544,-1.15605 0.0865,-1.73889 0.032,-0.58923 0.0672,-1.16566 0.10567,-1.72928 0.0448,-0.57002 0.0897,-1.12403 0.1345,-1.66203 0.0512,-0.538 0.10568,-1.04717 0.16332,-1.52754 l 0.81661,0 c 0.17293,0.28182 0.35866,0.61487 0.55721,0.99914 0.19855,0.3843 0.3971,0.78779 0.59565,1.2105 0.19854,0.41632 0.39068,0.83583 0.57642,1.25854 0.18574,0.41631 0.35546,0.79739 0.50918,1.14324 0.15371,-0.34585 0.32344,-0.72693 0.50918,-1.14324 0.18573,-0.42271 0.37787,-0.84222 0.57643,-1.25854 0.19854,-0.42271 0.39709,-0.8262 0.59564,-1.2105 0.19854,-0.38427 0.38428,-0.71732 0.55721,-0.99914 l 0.81661,0 c 0.21775,2.1456 0.38107,4.36484 0.48996,6.65774 l -0.91268,0 c -0.032,-0.89666 -0.0704,-1.78372 -0.11528,-2.66117 -0.0448,-0.88385 -0.10248,-1.70366 -0.17293,-2.45943 -0.0641,0.10889 -0.15052,0.26581 -0.25939,0.47075 -0.10248,0.20496 -0.21457,0.43873 -0.33625,0.70132 -0.1217,0.2562 -0.25299,0.5316 -0.39389,0.82622 -0.13451,0.28821 -0.2626,0.57002 -0.38429,0.84542 -0.12169,0.27541 -0.23698,0.5316 -0.34586,0.76857 -0.10248,0.23698 -0.18574,0.43233 -0.24978,0.58604 l -0.74936,0"
         style=""
         id="path19728" />
      <path
         d="m 215.94688,921.71851 c 0.21135,0 0.39709,-0.003 0.55721,-0.01 0.16652,-0.0128 0.30422,-0.032 0.41311,-0.0576 l 0,-1.48911 c -0.0641,-0.032 -0.16973,-0.0576 -0.31704,-0.0769 -0.14091,-0.0256 -0.31383,-0.0384 -0.51878,-0.0384 -0.13451,10e-6 -0.27861,0.01 -0.43232,0.0288 -0.14732,0.0192 -0.28502,0.0608 -0.41311,0.12489 -0.12169,0.0576 -0.22417,0.14091 -0.30743,0.24978 -0.0833,0.10248 -0.12489,0.24018 -0.12489,0.41311 0,0.32024 0.10247,0.54441 0.30743,0.6725 0.20495,0.12169 0.48355,0.18254 0.83582,0.18254 m -0.0769,-4.47693 c 0.35866,10e-6 0.65969,0.048 0.90307,0.14411 0.24978,0.0897 0.44833,0.22097 0.59564,0.39389 0.15371,0.16653 0.26259,0.36828 0.32664,0.60525 0.0641,0.23058 0.0961,0.48677 0.0961,0.76857 l 0,3.12232 c -0.0769,0.0128 -0.18575,0.032 -0.32665,0.0576 -0.1345,0.0192 -0.28821,0.0384 -0.46114,0.0576 -0.17293,0.0192 -0.36187,0.0352 -0.56682,0.048 -0.19855,0.0192 -0.3971,0.0288 -0.59564,0.0288 -0.28181,0 -0.5412,-0.0288 -0.77818,-0.0865 -0.23698,-0.0576 -0.44193,-0.14731 -0.61485,-0.269 -0.17293,-0.1281 -0.30743,-0.29462 -0.4035,-0.49957 -0.0961,-0.20495 -0.14411,-0.45154 -0.14411,-0.73975 0,-0.2754 0.0544,-0.51238 0.16332,-0.71093 0.11528,-0.19854 0.269,-0.35866 0.46114,-0.48036 0.19214,-0.12168 0.41631,-0.21135 0.6725,-0.269 0.25619,-0.0576 0.52519,-0.0865 0.807,-0.0865 0.0897,0 0.18253,0.006 0.27861,0.0192 0.0961,0.006 0.18573,0.0192 0.269,0.0384 0.0897,0.0128 0.16652,0.0256 0.23057,0.0384 0.064,0.0128 0.10887,0.0224 0.1345,0.0288 l 0,-0.24978 c -1e-5,-0.14731 -0.016,-0.29141 -0.048,-0.43232 -0.032,-0.14731 -0.0897,-0.2754 -0.17293,-0.38429 -0.0833,-0.11528 -0.19855,-0.20495 -0.34585,-0.269 -0.14091,-0.0704 -0.32665,-0.10567 -0.55722,-0.10568 -0.29462,1e-5 -0.55401,0.0224 -0.77817,0.0673 -0.21777,0.0384 -0.38109,0.0801 -0.48997,0.1249 l -0.10568,-0.73975 c 0.11529,-0.0512 0.30743,-0.0993 0.57643,-0.14411 0.269,-0.0512 0.56042,-0.0769 0.87425,-0.0769"
         style=""
         id="path19730" />
      <path
         d="m 220.42845,921.71851 c 0.36507,0 0.63407,-0.048 0.807,-0.14411 0.17933,-0.0961 0.269,-0.24979 0.269,-0.46114 0,-0.21776 -0.0865,-0.39069 -0.25939,-0.51879 -0.17293,-0.12809 -0.45794,-0.2722 -0.85504,-0.43232 -0.19214,-0.0769 -0.37788,-0.15371 -0.55721,-0.23057 -0.17293,-0.0833 -0.32344,-0.17933 -0.45153,-0.28821 -0.1281,-0.10888 -0.23058,-0.24018 -0.30743,-0.3939 -0.0769,-0.15371 -0.11529,-0.34265 -0.11529,-0.56682 0,-0.44192 0.16332,-0.79098 0.48996,-1.04717 0.32665,-0.26259 0.77178,-0.39389 1.3354,-0.3939 0.1409,10e-6 0.2818,0.01 0.42271,0.0288 0.1409,0.0128 0.2722,0.032 0.39389,0.0576 0.12169,0.0192 0.22737,0.0416 0.31704,0.0673 0.0961,0.0256 0.16972,0.048 0.22096,0.0672 l -0.16332,0.76857 c -0.0961,-0.0512 -0.24659,-0.10247 -0.45154,-0.15372 -0.20495,-0.0576 -0.45153,-0.0865 -0.73974,-0.0865 -0.24979,0 -0.46755,0.0512 -0.65329,0.15371 -0.18574,0.0961 -0.27861,0.24979 -0.27861,0.46115 0,0.10888 0.0192,0.20495 0.0576,0.28821 0.0448,0.0833 0.10888,0.16012 0.19214,0.23057 0.0897,0.064 0.19855,0.1249 0.32664,0.18254 0.12809,0.0576 0.28181,0.11849 0.46114,0.18253 0.23698,0.0897 0.44833,0.17934 0.63407,0.269 0.18574,0.0833 0.34266,0.18254 0.47075,0.29782 0.1345,0.11529 0.23698,0.25619 0.30743,0.42272 0.0704,0.16012 0.10568,0.35866 0.10568,0.59564 0,0.46114 -0.17293,0.8102 -0.51878,1.04717 -0.33946,0.23698 -0.82622,0.35547 -1.46029,0.35547 -0.44193,0 -0.78778,-0.0384 -1.03757,-0.11529 -0.24978,-0.0704 -0.41951,-0.12489 -0.50918,-0.16332 l 0.16333,-0.76857 c 0.10247,0.0384 0.26579,0.0961 0.48996,0.17293 0.22416,0.0769 0.52198,0.11529 0.89346,0.11529"
         style=""
         id="path19732" />
      <path
         d="m 224.37998,917.36648 1.89261,0 0,0.74935 -1.89261,0 0,2.30571 c 0,0.24979 0.0192,0.45794 0.0577,0.62447 0.0384,0.16012 0.0961,0.28821 0.17292,0.38428 0.0769,0.0897 0.17293,0.15372 0.28822,0.19214 0.11528,0.0384 0.24978,0.0576 0.4035,0.0576 0.26899,0 0.48355,-0.0288 0.64367,-0.0865 0.16652,-0.064 0.28181,-0.10888 0.34586,-0.1345 l 0.17293,0.73975 c -0.0897,0.0448 -0.24659,0.0993 -0.47075,0.16332 -0.22417,0.0705 -0.48036,0.10568 -0.76857,0.10568 -0.33945,0 -0.62126,-0.0416 -0.84543,-0.12489 -0.21776,-0.0897 -0.39389,-0.22097 -0.52839,-0.39389 -0.1345,-0.17293 -0.23057,-0.38429 -0.28821,-0.63407 -0.0512,-0.25619 -0.0769,-0.55081 -0.0769,-0.88386 l 0,-4.45771 0.89346,-0.15371 0,1.54675"
         style=""
         id="path19734" />
      <path
         d="m 227.03711,919.87394 c 0,-0.44193 0.064,-0.82621 0.19214,-1.15286 0.12809,-0.33304 0.29782,-0.60845 0.50918,-0.82621 0.21135,-0.21776 0.45473,-0.38108 0.73014,-0.48997 0.2754,-0.10887 0.55721,-0.16331 0.84542,-0.16332 0.6725,10e-6 1.18808,0.21137 1.54675,0.63407 0.35866,0.41632 0.538,1.05359 0.538,1.91182 0,0.0384 0,0.0897 0,0.15372 0,0.0576 -0.003,0.11208 -0.01,0.16332 l -3.42013,0 c 0.0384,0.51878 0.18894,0.91268 0.45153,1.18167 0.26259,0.269 0.6725,0.4035 1.22971,0.4035 0.31383,0 0.57643,-0.0256 0.78779,-0.0768 0.21776,-0.0577 0.38108,-0.11209 0.48996,-0.16332 l 0.12489,0.74935 c -0.10888,0.0576 -0.30102,0.11849 -0.57642,0.18254 -0.26901,0.064 -0.57643,0.0961 -0.92229,0.0961 -0.43552,0 -0.8134,-0.0641 -1.13364,-0.19214 -0.31383,-0.1345 -0.57322,-0.31704 -0.77818,-0.54761 -0.20495,-0.23057 -0.35866,-0.50277 -0.46114,-0.81661 -0.0961,-0.32023 -0.1441,-0.66929 -0.1441,-1.04717 m 3.42974,-0.48997 c 0.006,-0.40349 -0.0961,-0.73334 -0.30743,-0.98953 -0.20495,-0.26259 -0.48996,-0.39389 -0.85503,-0.39389 -0.20496,0 -0.38749,0.0416 -0.54761,0.12489 -0.15371,0.0769 -0.28501,0.17934 -0.39389,0.30743 -0.10888,0.1281 -0.19535,0.27541 -0.25939,0.44193 -0.0576,0.16652 -0.0961,0.33625 -0.11529,0.50917 l 2.47864,0"
         style=""
         id="path19736" />
      <path
         d="m 234.52676,917.2608 c 0.0769,0 0.16332,0.006 0.25939,0.0192 0.10248,0.006 0.20175,0.0192 0.29782,0.0384 0.0961,0.0128 0.18254,0.0288 0.2594,0.048 0.0833,0.0128 0.1441,0.0256 0.18253,0.0384 l -0.15371,0.77818 c -0.0705,-0.0256 -0.18895,-0.0544 -0.35547,-0.0865 -0.16012,-0.0384 -0.36827,-0.0576 -0.62446,-0.0576 -0.16653,0 -0.33305,0.0192 -0.49957,0.0576 -0.16012,0.032 -0.2658,0.0544 -0.31704,0.0672 l 0,4.19831 -0.89346,0 0,-4.78435 c 0.21136,-0.0768 0.47395,-0.1473 0.78779,-0.21135 0.31383,-0.0705 0.66609,-0.10568 1.05678,-0.10568"
         style=""
         id="path19738" />
      <path
         d="m 241.53216,922.50629 c -0.46755,0 -0.89347,-0.0769 -1.27775,-0.23057 -0.38429,-0.15372 -0.71413,-0.37788 -0.98953,-0.6725 -0.27541,-0.29462 -0.48997,-0.65649 -0.64368,-1.08561 -0.14731,-0.43552 -0.22097,-0.93188 -0.22097,-1.4891 0,-0.55721 0.0833,-1.05038 0.24979,-1.4795 0.17293,-0.43552 0.4035,-0.80059 0.69171,-1.09521 0.28822,-0.29461 0.62446,-0.51878 1.00875,-0.6725 0.38428,-0.15371 0.79419,-0.23056 1.22971,-0.23057 0.2754,10e-6 0.52199,0.0192 0.73975,0.0576 0.22416,0.0384 0.41631,0.0833 0.57643,0.1345 0.16652,0.0512 0.30102,0.10248 0.4035,0.15372 0.10247,0.0512 0.17292,0.0897 0.21136,0.11528 l -0.269,0.76857 c -0.0576,-0.0384 -0.14091,-0.0801 -0.24979,-0.12489 -0.10888,-0.0448 -0.23378,-0.0897 -0.37468,-0.1345 -0.1345,-0.0448 -0.28501,-0.08 -0.45153,-0.10568 -0.16012,-0.032 -0.32345,-0.048 -0.48996,-0.048 -0.35227,0 -0.6693,0.0608 -0.95111,0.18253 -0.28181,0.1217 -0.52199,0.29783 -0.72053,0.52839 -0.19855,0.23058 -0.35227,0.51239 -0.46115,0.84543 -0.10247,0.32665 -0.15371,0.69492 -0.15371,1.10482 0,0.3971 0.0448,0.75897 0.1345,1.0856 0.0961,0.32665 0.23697,0.60846 0.42271,0.84543 0.18574,0.23057 0.41631,0.40991 0.69172,0.538 0.2818,0.1281 0.60844,0.19214 0.97992,0.19214 0.42912,0 0.78458,-0.0448 1.06639,-0.1345 0.28181,-0.0897 0.49316,-0.16972 0.63407,-0.24017 l 0.24018,0.76857 c -0.0448,0.032 -0.1249,0.0737 -0.24018,0.12489 -0.11529,0.0448 -0.25939,0.0897 -0.43232,0.1345 -0.17293,0.0448 -0.37468,0.0833 -0.60525,0.11528 -0.23057,0.032 -0.48036,0.048 -0.74935,0.048"
         style=""
         id="path19740" />
      <path
         d="m 248.81931,919.86433 c 0,0.3971 -0.0576,0.75576 -0.17293,1.076 -0.11529,0.32024 -0.27861,0.59564 -0.48996,0.82621 -0.20496,0.23057 -0.45154,0.40991 -0.73975,0.538 -0.28821,0.12169 -0.60205,0.18254 -0.9415,0.18254 -0.33945,0 -0.65328,-0.0608 -0.94149,-0.18254 -0.28822,-0.12809 -0.53801,-0.30743 -0.74936,-0.538 -0.20495,-0.23057 -0.36507,-0.50597 -0.48036,-0.82621 -0.11528,-0.32024 -0.17293,-0.6789 -0.17293,-1.076 0,-0.39069 0.0576,-0.74615 0.17293,-1.06639 0.11529,-0.32664 0.27541,-0.60525 0.48036,-0.83582 0.21135,-0.23057 0.46114,-0.4067 0.74936,-0.52839 0.28821,-0.12809 0.60204,-0.19214 0.94149,-0.19215 0.33945,10e-6 0.65329,0.0641 0.9415,0.19215 0.28821,0.12169 0.53479,0.29782 0.73975,0.52839 0.21135,0.23057 0.37467,0.50918 0.48996,0.83582 0.11528,0.32024 0.17293,0.6757 0.17293,1.06639 m -0.93189,0 c 0,-0.56362 -0.1281,-1.00875 -0.38428,-1.33539 -0.24979,-0.33304 -0.59245,-0.49957 -1.02797,-0.49957 -0.43552,0 -0.78138,0.16653 -1.03757,0.49957 -0.24978,0.32664 -0.37468,0.77177 -0.37467,1.33539 -1e-5,0.56362 0.12489,1.01195 0.37467,1.345 0.25619,0.32664 0.60205,0.48996 1.03757,0.48996 0.43552,0 0.77818,-0.16332 1.02797,-0.48996 0.25618,-0.33305 0.38428,-0.78138 0.38428,-1.345"
         style=""
         id="path19742" />
      <path
         d="m 250.07635,917.51058 c 0.20495,-0.0512 0.47715,-0.10567 0.8166,-0.16332 0.33945,-0.0576 0.73014,-0.0865 1.17207,-0.0865 0.39709,0 0.72694,0.0576 0.98954,0.17293 0.26259,0.10888 0.47074,0.2658 0.62446,0.47075 0.16011,0.19855 0.2722,0.43873 0.33625,0.72053 0.064,0.28181 0.0961,0.59244 0.0961,0.93189 l 0,2.80528 -0.89346,0 0,-2.61314 c -1e-5,-0.30742 -0.0224,-0.57002 -0.0673,-0.78778 -0.0384,-0.21776 -0.10568,-0.39389 -0.20175,-0.52839 -0.0961,-0.1345 -0.22417,-0.23057 -0.38429,-0.28822 -0.16012,-0.064 -0.35867,-0.0961 -0.59564,-0.0961 -0.0961,10e-6 -0.19535,0.003 -0.29782,0.01 -0.10248,0.006 -0.20175,0.016 -0.29782,0.0288 -0.0897,0.006 -0.17293,0.016 -0.24979,0.0288 -0.0705,0.0128 -0.12169,0.0224 -0.15371,0.0288 l 0,4.21753 -0.89346,0 0,-4.8516"
         style=""
         id="path19744" />
      <path
         d="m 256.42876,917.36648 1.8926,0 0,0.74935 -1.8926,0 0,2.30571 c 0,0.24979 0.0192,0.45794 0.0576,0.62447 0.0384,0.16012 0.0961,0.28821 0.17293,0.38428 0.0768,0.0897 0.17293,0.15372 0.28821,0.19214 0.11529,0.0384 0.24979,0.0576 0.4035,0.0576 0.269,0 0.48356,-0.0288 0.64368,-0.0865 0.16652,-0.064 0.28181,-0.10888 0.34586,-0.1345 l 0.17292,0.73975 c -0.0897,0.0448 -0.24658,0.0993 -0.47074,0.16332 -0.22417,0.0705 -0.48036,0.10568 -0.76858,0.10568 -0.33945,0 -0.62126,-0.0416 -0.84542,-0.12489 -0.21777,-0.0897 -0.3939,-0.22097 -0.52839,-0.39389 -0.1345,-0.17293 -0.23058,-0.38429 -0.28822,-0.63407 -0.0512,-0.25619 -0.0769,-0.55081 -0.0769,-0.88386 l 0,-4.45771 0.89347,-0.15371 0,1.54675"
         style=""
         id="path19746" />
      <path
         d="m 261.30287,917.2608 c 0.0769,0 0.16332,0.006 0.2594,0.0192 0.10247,0.006 0.20174,0.0192 0.29782,0.0384 0.0961,0.0128 0.18253,0.0288 0.25939,0.048 0.0833,0.0128 0.1441,0.0256 0.18254,0.0384 l -0.15372,0.77818 c -0.0704,-0.0256 -0.18894,-0.0544 -0.35546,-0.0865 -0.16012,-0.0384 -0.36828,-0.0576 -0.62447,-0.0576 -0.16652,0 -0.33304,0.0192 -0.49957,0.0576 -0.16012,0.032 -0.2658,0.0544 -0.31703,0.0672 l 0,4.19831 -0.89346,0 0,-4.78435 c 0.21135,-0.0768 0.47395,-0.1473 0.78778,-0.21135 0.31383,-0.0705 0.66609,-0.10568 1.05678,-0.10568"
         style=""
         id="path19748" />
      <path
         d="m 267.58323,919.86433 c 0,0.3971 -0.0577,0.75576 -0.17293,1.076 -0.11529,0.32024 -0.27861,0.59564 -0.48996,0.82621 -0.20496,0.23057 -0.45154,0.40991 -0.73975,0.538 -0.28822,0.12169 -0.60205,0.18254 -0.9415,0.18254 -0.33945,0 -0.65328,-0.0608 -0.94149,-0.18254 -0.28822,-0.12809 -0.53801,-0.30743 -0.74936,-0.538 -0.20495,-0.23057 -0.36507,-0.50597 -0.48036,-0.82621 -0.11528,-0.32024 -0.17293,-0.6789 -0.17293,-1.076 0,-0.39069 0.0577,-0.74615 0.17293,-1.06639 0.11529,-0.32664 0.27541,-0.60525 0.48036,-0.83582 0.21135,-0.23057 0.46114,-0.4067 0.74936,-0.52839 0.28821,-0.12809 0.60204,-0.19214 0.94149,-0.19215 0.33945,10e-6 0.65328,0.0641 0.9415,0.19215 0.28821,0.12169 0.53479,0.29782 0.73975,0.52839 0.21135,0.23057 0.37467,0.50918 0.48996,0.83582 0.11528,0.32024 0.17293,0.6757 0.17293,1.06639 m -0.93189,0 c 0,-0.56362 -0.1281,-1.00875 -0.38428,-1.33539 -0.24979,-0.33304 -0.59245,-0.49957 -1.02797,-0.49957 -0.43552,0 -0.78138,0.16653 -1.03757,0.49957 -0.24978,0.32664 -0.37468,0.77177 -0.37467,1.33539 -10e-6,0.56362 0.12489,1.01195 0.37467,1.345 0.25619,0.32664 0.60205,0.48996 1.03757,0.48996 0.43552,0 0.77818,-0.16332 1.02797,-0.48996 0.25618,-0.33305 0.38428,-0.78138 0.38428,-1.345"
         style=""
         id="path19750" />
      <path
         d="m 270.33898,922.45825 c -0.55081,-0.0128 -0.9415,-0.13129 -1.17207,-0.35546 -0.23057,-0.22417 -0.34586,-0.57322 -0.34586,-1.04718 l 0,-5.99484 0.89347,-0.15372 0,6.00446 c -10e-6,0.14731 0.0128,0.269 0.0384,0.36507 0.0256,0.0961 0.0673,0.17293 0.1249,0.23057 0.0576,0.0576 0.13449,0.10248 0.23057,0.1345 0.0961,0.0256 0.21456,0.048 0.35546,0.0672 l -0.12489,0.74935"
         style=""
         id="path19752" />
      <path
         d="m 273.739,915.70444 0.93189,0 0,6.65774 -0.93189,0 0,-6.65774"
         style=""
         id="path19754" />
      <path
         d="m 276.27078,917.51058 c 0.20495,-0.0512 0.47716,-0.10567 0.81661,-0.16332 0.33945,-0.0576 0.73014,-0.0865 1.17207,-0.0865 0.39709,0 0.72693,0.0576 0.98953,0.17293 0.26259,0.10888 0.47075,0.2658 0.62447,0.47075 0.16011,0.19855 0.27219,0.43873 0.33624,0.72053 0.0641,0.28181 0.0961,0.59244 0.0961,0.93189 l 0,2.80528 -0.89347,0 0,-2.61314 c 0,-0.30742 -0.0224,-0.57002 -0.0673,-0.78778 -0.0384,-0.21776 -0.10568,-0.39389 -0.20175,-0.52839 -0.0961,-0.1345 -0.22417,-0.23057 -0.38428,-0.28822 -0.16012,-0.064 -0.35867,-0.0961 -0.59564,-0.0961 -0.0961,10e-6 -0.19535,0.003 -0.29782,0.01 -0.10248,0.006 -0.20176,0.016 -0.29783,0.0288 -0.0897,0.006 -0.17293,0.016 -0.24978,0.0288 -0.0705,0.0128 -0.12169,0.0224 -0.15371,0.0288 l 0,4.21753 -0.89347,0 0,-4.8516"
         style=""
         id="path19756" />
      <path
         d="m 282.62319,917.36648 1.8926,0 0,0.74935 -1.8926,0 0,2.30571 c 0,0.24979 0.0192,0.45794 0.0576,0.62447 0.0384,0.16012 0.0961,0.28821 0.17293,0.38428 0.0769,0.0897 0.17293,0.15372 0.28821,0.19214 0.11529,0.0384 0.24979,0.0576 0.4035,0.0576 0.269,0 0.48356,-0.0288 0.64368,-0.0865 0.16652,-0.064 0.28181,-0.10888 0.34586,-0.1345 l 0.17293,0.73975 c -0.0897,0.0448 -0.24659,0.0993 -0.47075,0.16332 -0.22417,0.0705 -0.48036,0.10568 -0.76857,0.10568 -0.33946,0 -0.62127,-0.0416 -0.84543,-0.12489 -0.21776,-0.0897 -0.39389,-0.22097 -0.52839,-0.39389 -0.1345,-0.17293 -0.23057,-0.38429 -0.28822,-0.63407 -0.0512,-0.25619 -0.0768,-0.55081 -0.0768,-0.88386 l 0,-4.45771 0.89346,-0.15371 0,1.54675"
         style=""
         id="path19758" />
      <path
         d="m 285.28032,919.87394 c -1e-5,-0.44193 0.064,-0.82621 0.19214,-1.15286 0.12809,-0.33304 0.29782,-0.60845 0.50918,-0.82621 0.21135,-0.21776 0.45473,-0.38108 0.73014,-0.48997 0.2754,-0.10887 0.55721,-0.16331 0.84542,-0.16332 0.6725,10e-6 1.18808,0.21137 1.54675,0.63407 0.35866,0.41632 0.538,1.05359 0.538,1.91182 0,0.0384 0,0.0897 0,0.15372 0,0.0576 -0.003,0.11208 -0.01,0.16332 l -3.42013,0 c 0.0384,0.51878 0.18894,0.91268 0.45153,1.18167 0.26259,0.269 0.6725,0.4035 1.22971,0.4035 0.31383,0 0.57643,-0.0256 0.78779,-0.0768 0.21776,-0.0577 0.38108,-0.11209 0.48996,-0.16332 l 0.12489,0.74935 c -0.10888,0.0576 -0.30102,0.11849 -0.57642,0.18254 -0.26901,0.064 -0.57643,0.0961 -0.92229,0.0961 -0.43552,0 -0.8134,-0.0641 -1.13364,-0.19214 -0.31383,-0.1345 -0.57322,-0.31704 -0.77818,-0.54761 -0.20495,-0.23057 -0.35866,-0.50277 -0.46114,-0.81661 -0.0961,-0.32023 -0.14411,-0.66929 -0.1441,-1.04717 m 3.42974,-0.48997 c 0.006,-0.40349 -0.0961,-0.73334 -0.30743,-0.98953 -0.20495,-0.26259 -0.48996,-0.39389 -0.85503,-0.39389 -0.20496,0 -0.38749,0.0416 -0.54761,0.12489 -0.15371,0.0769 -0.28501,0.17934 -0.39389,0.30743 -0.10888,0.1281 -0.19535,0.27541 -0.25939,0.44193 -0.0576,0.16652 -0.0961,0.33625 -0.11529,0.50917 l 2.47864,0"
         style=""
         id="path19760" />
      <path
         d="m 292.76997,917.2608 c 0.0768,0 0.16332,0.006 0.25939,0.0192 0.10247,0.006 0.20175,0.0192 0.29782,0.0384 0.0961,0.0128 0.18253,0.0288 0.25939,0.048 0.0833,0.0128 0.14411,0.0256 0.18254,0.0384 l -0.15371,0.77818 c -0.0705,-0.0256 -0.18895,-0.0544 -0.35547,-0.0865 -0.16012,-0.0384 -0.36827,-0.0576 -0.62446,-0.0576 -0.16653,0 -0.33305,0.0192 -0.49957,0.0576 -0.16012,0.032 -0.2658,0.0544 -0.31704,0.0672 l 0,4.19831 -0.89346,0 0,-4.78435 c 0.21136,-0.0768 0.47395,-0.1473 0.78778,-0.21135 0.31384,-0.0705 0.6661,-0.10568 1.05679,-0.10568"
         style=""
         id="path19762" />
      <path
         d="m 296.5909,914.90705 c 0.26259,10e-6 0.48676,0.0192 0.6725,0.0576 0.19214,0.0384 0.32664,0.0737 0.4035,0.10568 l -0.16332,0.76857 c -0.0769,-0.0384 -0.18574,-0.0736 -0.32664,-0.10568 -0.14091,-0.0384 -0.31384,-0.0576 -0.51879,-0.0576 -0.41631,10e-6 -0.70772,0.11529 -0.87425,0.34586 -0.16652,0.22417 -0.24978,0.5284 -0.24978,0.91268 l 0,0.43232 1.92142,0 0,0.74935 -1.92142,0 0,4.24635 -0.89346,0 0,-5.44724 c -1e-5,-0.64047 0.15691,-1.13363 0.47074,-1.4795 0.31384,-0.35225 0.807,-0.52838 1.4795,-0.52839"
         style=""
         id="path19764" />
      <path
         d="m 300.04677,921.71851 c 0.21135,0 0.39709,-0.003 0.55721,-0.01 0.16652,-0.0128 0.30422,-0.032 0.41311,-0.0576 l 0,-1.48911 c -0.0641,-0.032 -0.16973,-0.0576 -0.31704,-0.0769 -0.14091,-0.0256 -0.31384,-0.0384 -0.51878,-0.0384 -0.13451,10e-6 -0.27861,0.01 -0.43233,0.0288 -0.14731,0.0192 -0.28501,0.0608 -0.4131,0.12489 -0.12169,0.0576 -0.22417,0.14091 -0.30743,0.24978 -0.0833,0.10248 -0.12489,0.24018 -0.12489,0.41311 0,0.32024 0.10247,0.54441 0.30743,0.6725 0.20495,0.12169 0.48355,0.18254 0.83582,0.18254 m -0.0769,-4.47693 c 0.35866,10e-6 0.65969,0.048 0.90307,0.14411 0.24978,0.0897 0.44833,0.22097 0.59564,0.39389 0.15371,0.16653 0.26259,0.36828 0.32664,0.60525 0.0641,0.23058 0.0961,0.48677 0.0961,0.76857 l 0,3.12232 c -0.0769,0.0128 -0.18574,0.032 -0.32664,0.0576 -0.1345,0.0192 -0.28822,0.0384 -0.46114,0.0576 -0.17293,0.0192 -0.36187,0.0352 -0.56682,0.048 -0.19855,0.0192 -0.3971,0.0288 -0.59564,0.0288 -0.28181,0 -0.54121,-0.0288 -0.77818,-0.0865 -0.23698,-0.0576 -0.44193,-0.14731 -0.61486,-0.269 -0.17293,-0.1281 -0.30742,-0.29462 -0.4035,-0.49957 -0.0961,-0.20495 -0.1441,-0.45154 -0.1441,-0.73975 0,-0.2754 0.0544,-0.51238 0.16332,-0.71093 0.11528,-0.19854 0.269,-0.35866 0.46114,-0.48036 0.19214,-0.12168 0.41631,-0.21135 0.6725,-0.269 0.25619,-0.0576 0.52519,-0.0865 0.807,-0.0865 0.0897,0 0.18253,0.006 0.27861,0.0192 0.0961,0.006 0.18573,0.0192 0.26899,0.0384 0.0897,0.0128 0.16653,0.0256 0.23058,0.0384 0.064,0.0128 0.10887,0.0224 0.1345,0.0288 l 0,-0.24978 c -10e-6,-0.14731 -0.016,-0.29141 -0.048,-0.43232 -0.032,-0.14731 -0.0897,-0.2754 -0.17293,-0.38429 -0.0833,-0.11528 -0.19855,-0.20495 -0.34585,-0.269 -0.14091,-0.0704 -0.32665,-0.10567 -0.55722,-0.10568 -0.29462,1e-5 -0.55401,0.0224 -0.77818,0.0673 -0.21776,0.0384 -0.38108,0.0801 -0.48996,0.1249 l -0.10568,-0.73975 c 0.11529,-0.0512 0.30743,-0.0993 0.57643,-0.14411 0.269,-0.0512 0.56041,-0.0769 0.87425,-0.0769"
         style=""
         id="path19766" />
      <path
         d="m 305.53709,922.47747 c -0.4035,0 -0.75896,-0.0641 -1.06639,-0.19214 -0.30102,-0.1281 -0.55721,-0.30743 -0.76857,-0.538 -0.20495,-0.23057 -0.35866,-0.50278 -0.46114,-0.81661 -0.10248,-0.32024 -0.15371,-0.6725 -0.15371,-1.05678 0,-0.38429 0.0544,-0.73655 0.16332,-1.05679 0.11528,-0.32023 0.2754,-0.59564 0.48035,-0.82621 0.20495,-0.23697 0.45474,-0.41951 0.74936,-0.54761 0.30102,-0.13449 0.63407,-0.20174 0.99914,-0.20175 0.22416,10e-6 0.44833,0.0192 0.6725,0.0576 0.22416,0.0384 0.43872,0.0993 0.64368,0.18253 l -0.20175,0.75897 c -0.13451,-0.064 -0.29142,-0.11529 -0.47075,-0.15372 -0.17293,-0.0384 -0.35867,-0.0576 -0.55721,-0.0576 -0.49958,0 -0.88386,0.15692 -1.15286,0.47075 -0.2626,0.31383 -0.39389,0.77177 -0.39389,1.37382 0,0.269 0.0288,0.51558 0.0865,0.73975 0.0641,0.22416 0.16012,0.41631 0.28822,0.57642 0.13449,0.16012 0.30422,0.28502 0.50917,0.37468 0.20495,0.0833 0.45474,0.12489 0.74936,0.12489 0.23697,0 0.45153,-0.0224 0.64368,-0.0672 0.19214,-0.0448 0.34265,-0.0929 0.45153,-0.1441 l 0.12489,0.74935 c -0.0512,0.032 -0.12489,0.0641 -0.22096,0.0961 -0.0961,0.0256 -0.20496,0.048 -0.32664,0.0672 -0.1217,0.0256 -0.25299,0.0448 -0.39389,0.0577 -0.13451,0.0192 -0.2658,0.0288 -0.3939,0.0288"
         style=""
         id="path19768" />
      <path
         d="m 307.55309,919.87394 c 0,-0.44193 0.0641,-0.82621 0.19214,-1.15286 0.1281,-0.33304 0.29782,-0.60845 0.50918,-0.82621 0.21135,-0.21776 0.45474,-0.38108 0.73014,-0.48997 0.2754,-0.10887 0.55721,-0.16331 0.84543,-0.16332 0.67249,10e-6 1.18808,0.21137 1.54675,0.63407 0.35866,0.41632 0.53799,1.05359 0.53799,1.91182 0,0.0384 0,0.0897 0,0.15372 0,0.0576 -0.003,0.11208 -0.01,0.16332 l -3.42014,0 c 0.0384,0.51878 0.18894,0.91268 0.45154,1.18167 0.26259,0.269 0.67249,0.4035 1.22971,0.4035 0.31383,0 0.57642,-0.0256 0.78778,-0.0768 0.21776,-0.0577 0.38108,-0.11209 0.48997,-0.16332 l 0.12489,0.74935 c -0.10889,0.0576 -0.30103,0.11849 -0.57643,0.18254 -0.269,0.064 -0.57643,0.0961 -0.92228,0.0961 -0.43553,0 -0.81341,-0.0641 -1.13364,-0.19214 -0.31384,-0.1345 -0.57323,-0.31704 -0.77818,-0.54761 -0.20495,-0.23057 -0.35867,-0.50277 -0.46114,-0.81661 -0.0961,-0.32023 -0.14411,-0.66929 -0.14411,-1.04717 m 3.42974,-0.48997 c 0.006,-0.40349 -0.0961,-0.73334 -0.30742,-0.98953 -0.20496,-0.26259 -0.48997,-0.39389 -0.85504,-0.39389 -0.20495,0 -0.38749,0.0416 -0.54761,0.12489 -0.15371,0.0769 -0.28501,0.17934 -0.39389,0.30743 -0.10888,0.1281 -0.19534,0.27541 -0.25939,0.44193 -0.0576,0.16652 -0.0961,0.33625 -0.11529,0.50917 l 2.47864,0"
         style=""
         id="path19770" />
    </g>
    <rect
       style="fill:none;stroke:#000000;stroke-width:0.14981771;stroke-linecap:round;stroke-linejoin:round;stroke-miterlimit:4;stroke-opacity:1;stroke-dasharray:none;stroke-dashoffset:0"
       id="rect19693"
       width="38.918221"
       height="11.188765"
       x="124.09066"
       y="828.50006" />
    <rect
       y="785.98041"
       x="124.09066"
       height="11.188765"
       width="38.918221"
       id="rect19695"
       style="fill:none;stroke:#000000;stroke-width:0.14981771;stroke-linecap:round;stroke-linejoin:round;stroke-miterlimit:4;stroke-opacity:1;stroke-dasharray:none;stroke-dashoffset:0" />
    <path
       sodipodi:nodetypes="ccccccccccccccccccc"
       inkscape:connector-curvature="0"
       id="path19698"
       d="m 10.629919,875.10719 166.535431,0 0,-146.15928 -177.07570961,0 0,18.2682 10.54027861,0 0,18.2728 -10.54027861,0 0,18.26932 10.54027861,0 0,18.26929 -10.54027861,0 0,18.26929 10.54027861,-6.3e-4 0,18.26992 -10.54027861,0 0,18.27284 10.54027861,0 z"
       style="fill:none;stroke:#000000;stroke-width:0.17928079;stroke-linecap:round;stroke-linejoin:round;stroke-miterlimit:4;stroke-opacity:1;stroke-dashoffset:0" />
    <rect
       y="828.50006"
       x="324.09067"
       height="11.188765"
       width="38.918221"
       id="rect19700"
       style="fill:none;stroke:#000000;stroke-width:0.14981771;stroke-linecap:round;stroke-linejoin:round;stroke-miterlimit:4;stroke-opacity:1;stroke-dasharray:none;stroke-dashoffset:0" />
    <rect
       style="fill:none;stroke:#000000;stroke-width:0.14981771;stroke-linecap:round;stroke-linejoin:round;stroke-miterlimit:4;stroke-opacity:1;stroke-dasharray:none;stroke-dashoffset:0"
       id="rect19702"
       width="38.918221"
       height="11.188765"
       x="324.09067"
       y="785.98041" />
    <path
       style="fill:none;stroke:#000000;stroke-width:0.17928079;stroke-linecap:round;stroke-linejoin:round;stroke-miterlimit:4;stroke-opacity:1;stroke-dashoffset:0"
       d="m 210.62992,875.10719 166.53543,0 0,-146.15928 -177.07571,0 0,18.2682 10.54028,0 0,18.2728 -10.54028,0 0,18.26932 10.54028,0 0,18.26929 -10.54028,0 0,18.26929 10.54028,-6.3e-4 0,18.26992 -10.54028,0 0,18.27284 10.54028,0 z"
       id="path19704"
       inkscape:connector-curvature="0"
       sodipodi:nodetypes="ccccccccccccccccccc" />
  </g>
</svg>
